Simulation
nRows=20
nColumns=15
endheader
time  TH_x TH_y TH_z SC_y  SC_z  SC_x  AC_y  AC_z  AC_x  GH_y  GH_z  GH_yy  EL_x  PS_y
1.95  0.000000  0.000000  0.000000  -29.479714578558756  10.856340465097524  20.73370156290802  55.13450816489031  10.182922300445782  2.054464327727513  53.69423045366349  62.59000986580588  -42.91106405490297  22.386598739139618  0.000000
1.989  0.000000  0.000000  0.000000  -29.280103930056807  10.395739535243  20.055867688856885  55.15633853512968  9.99793579300078  1.6016371177760735  53.768248317792334  61.64185526616866  -42.033902053912804  22.58372416094441  0.000000
2.028  0.000000  0.000000  0.000000  -29.052780904262427  9.885905747239342  19.31510579726091  55.16572343914995  9.808955963503172  1.1365893305772385  53.847495311265405  60.55686615428483  -41.144685995168125  22.781512902118344  0.000000
2.067  0.000000  0.000000  0.000000  -28.80288936503293  9.338167973724223  18.52143185366735  55.1616467021396  9.618082712910034  0.6755920119973589  53.93163178724447  59.33740918035373  -40.25482797952384  22.968720825459382  0.000000
2.106  0.000000  0.000000  0.000000  -28.52791221621125  8.759542312541784  17.68040114861208  55.14422047605586  9.425928746439345  0.22941672952677894  53.99874625886344  57.99491728515606  -39.337328401950124  23.130969089980937  0.000000
2.145  0.000000  0.000000  0.000000  -28.22146906873368  8.154126141417013  16.79530632764102  55.11404933189548  9.233750960492912  -0.1946683961617914  54.01426579083999  56.54685918423169  -38.34442696180312  23.254145262767306  0.000000
2.184  0.000000  0.000000  0.000000  -27.881498632405343  7.525538873849895  15.869476895220332  55.07068477236238  9.04556895310725  -0.5904013989080917  53.947014143374126  55.010545145519615  -37.238763618077414  23.331838081306106  0.000000
2.223  0.000000  0.000000  0.000000  -27.521531289459514  6.877921379475461  14.911134262461943  55.01585903180034  8.865085114166245  -0.9530592401615922  53.77974849044827  53.400160910831175  -36.01197576062754  23.37214002166475  0.000000
2.262  0.000000  0.000000  0.000000  -27.166342010946543  6.215272162959178  13.933036973455367  54.95113803981179  8.692234513178798  -1.2803922157575687  53.51037551076905  51.72608445738231  -34.68142177091527  23.394526733420413  0.000000
2.301  0.000000  0.000000  0.000000  -26.84019696732078  5.542959682402721  12.949350428234293  54.876365340479325  8.524585415225479  -1.5727629279011566  53.14163034636855  49.99568027764694  -33.263152093499606  23.422070806248048  0.000000
2.34  0.000000  0.000000  0.000000  -26.554737271181402  4.868492790009193  11.972725847358742  54.7868460194599  8.358969289241836  -1.8333231668579157  52.67039778523643  48.213050015159325  -31.752678028917025  23.477080339376634  0.000000
2.379  0.000000  0.000000  0.000000  -26.30668007590377  4.2015566559280755  11.012118658484857  54.67410664558382  8.191469079724062  -2.0667635461753338  52.081684101321876  46.38217391261602  -30.120978840028908  23.578288377297042  0.000000
2.418  0.000000  0.000000  0.000000  -26.083215665479635  3.552036915044664  10.072440074959957  54.52739866777263  8.018767571928377  -2.278866434332407  51.352126706045624  44.508866342917  -28.324711314573616  23.741057144131382  0.000000
2.457  0.000000  0.000000  0.000000  -25.873764139258586  2.9282909661671135  9.157244073997717  54.338163235591416  7.839391819643026  -2.4741866181374483  50.45474740950409  42.60085119800588  -26.320866648884483  23.97836990120991  0.000000
2.496  0.000000  0.000000  0.000000  -25.682444373338218  2.3351437684582286  8.270934005438082  54.10483601609314  7.65174727793642  -2.6559498424372676  49.366441053875604  40.67103620038828  -24.085941334879816  24.29825756421729  0.000000
2.535  0.000000  0.000000  0.000000  -25.524594988353147  1.7746029609239766  7.420758600613948  53.83194421955366  7.453679863765611  -2.8263815805449775  48.06704321411083  38.73503714001177  -21.609295313025584  24.7033414977957  0.000000
2.574  0.000000  0.000000  0.000000  -25.410370423862712  1.2491047911195583  6.615149610616652  53.52577943204284  7.244999808397932  -2.988259294527049  46.54031055432145  36.80550562548019  -18.89180690250892  25.188046031107856  0.000000
2.613  0.000000  0.000000  0.000000  -25.340710008135325  0.7607748760128786  5.858772015410652  53.19447631458845  7.025676755830798  -3.141496965348244  44.77748349913055  34.8946111969452  -15.959744018862265  25.727361562847385  0.000000
2.652  0.000000  0.000000  0.000000  -25.30739119600961  0.31065732884141717  5.1523127645617715  52.847008639992424  6.797231772189494  -3.284705041354911  42.782617873361154  33.01348002610493  -12.860566174758127  26.277057089525393  0.000000
2.691  0.000000  0.000000  0.000000  -25.29929587072159  -0.09847780908501258  4.494254479559614  52.490080331128816  6.562606224684883  -3.415357545606104  40.57499463588002  31.169681283519107  -9.650336570505704  26.787747611599656  0.000000
